<!-- AnchorCore trust visual (R16.7): the safe. Section drawers (§), OS-keychain
     key, local-only badge. Matte Stone & Sage only. Static asset, no JS. -->
<svg xmlns="http://www.w3.org/2000/svg" viewBox="0 0 560 330" font-family="ui-monospace, Menlo, monospace">
  <!-- safe body -->
  <rect x="100" y="30" width="360" height="240" rx="16" fill="#4A5A52"/>
  <rect x="100" y="30" width="360" height="240" rx="16" fill="none" stroke="#3f4d46" stroke-width="3"/>
  <!-- drawers -->
  <g>
    <rect x="124" y="54" width="312" height="56" rx="8" fill="#F2F0EB"/>
    <rect x="136" y="66" width="7" height="32" rx="3" fill="#4A5A52"/>
    <text x="152" y="88" font-size="17" fill="#1a1d1a">434 · Scope</text>
    <rect x="382" y="79" width="30" height="6" rx="3" fill="#9A8B7A"/>
    <rect x="124" y="120" width="312" height="56" rx="8" fill="#F2F0EB"/>
    <rect x="136" y="132" width="7" height="32" rx="3" fill="#4A5A52"/>
    <text x="152" y="154" font-size="17" fill="#1a1d1a">437 · Dates</text>
    <rect x="382" y="145" width="30" height="6" rx="3" fill="#9A8B7A"/>
    <rect x="124" y="186" width="312" height="56" rx="8" fill="#F2F0EB"/>
    <rect x="136" y="198" width="7" height="32" rx="3" fill="#9A8B7A"/>
    <text x="152" y="220" font-size="17" fill="#1a1d1a">4.2.1 Billing</text>
    <rect x="382" y="211" width="30" height="6" rx="3" fill="#9A8B7A"/>
  </g>
  <!-- key (OS keychain) -->
  <g transform="translate(46,236)">
    <circle cx="0" cy="0" r="11" fill="none" stroke="#9A8B7A" stroke-width="4"/>
    <path d="M11 0 H44 M34 0 V9 M44 0 V7" fill="none" stroke="#9A8B7A" stroke-width="4" stroke-linecap="round"/>
  </g>
  <!-- badge -->
  <g transform="translate(280,302)">
    <rect x="-170" y="-18" width="340" height="36" rx="18" fill="#1a1d1a"/>
    <text x="0" y="5" text-anchor="middle" font-size="16" letter-spacing="1" fill="#F2F0EB">NOTHING LEAVES YOUR MACHINE</text>
  </g>
</svg>
